<svg width="250" height="36" viewBox="0 0 250 36" xmlns="http://www.w3.org/2000/svg">
    <g fill="#000" fill-rule="evenodd">
        <path d="m0 29.111 4.423-5.305c3.086 2.537 6.542 4.015 10.41 4.015 2.948 0 4.468-1.203 4.468-2.908 0-1.89-1.476-2.307-6.081-3.414-6.77-1.523-11.79-3.367-11.79-9.733 0-6.09 4.88-10.152 12.114-10.152 5.297 0 9.442 1.525 12.806 4.337l-4.01 5.63c-2.902-2.215-6.078-3.369-9.028-3.369-2.533 0-3.96 1.2-3.96 2.769 0 1.936 1.52 2.583 6.218 3.598 7.092 1.522 11.654 3.553 11.654 9.505 0 6.364-4.837 10.332-12.667 10.332-5.621 0-10.733-1.846-14.557-5.305M31.42 33.863h7.83V1.615h-7.83zM62.468 21.915c0-3.23-2.672-5.952-5.85-5.952-3.179 0-5.85 2.722-5.85 5.952s2.671 5.995 5.85 5.995c3.178 0 5.85-2.766 5.85-5.995m-19.07 0c0-6.781 6.033-12.457 13.22-12.457 7.184 0 13.22 5.676 13.22 12.457 0 6.78-6.036 12.5-13.22 12.5-7.187 0-13.22-5.72-13.22-12.5M148.603 18.685v15.177h-7.463V20.437c0-2.63-1.658-4.474-4.052-4.474-2.397 0-4.194 1.798-4.194 4.152l-.044-.14v13.887h-7.786v-23.85h7.786v2.722c1.473-2.03 4.006-3.276 7-3.276 5.111 0 8.753 3.83 8.753 9.227M160.305 0l6.817 1.2-6.907 6.181h-5.16l5.25-7.38zm-6.493 33.861h7.784v-23.85h-7.784v23.85zM191.123 33.863h-8.843l-5.158-8.442-2.397 2.768v5.674h-7.83V1.614h7.83v17.809l7.509-9.41h8.846l-8.8 10.424zM194.49 31.88c0-1.293 1.106-2.444 2.533-2.444 1.335 0 2.44 1.151 2.44 2.444 0 1.383-1.105 2.536-2.44 2.536a2.528 2.528 0 0 1-2.533-2.536M204.856 30.864l1.795-2.537c2.718 1.983 5.436 3 8.061 3 3.134 0 5.253-1.478 5.253-3.737 0-2.585-2.764-3.415-5.988-4.337-5.76-1.66-7.97-3.368-7.97-6.783 0-4.337 3.593-7.013 8.337-7.013 2.95 0 5.99 1.015 8.522 2.676l-1.659 2.676c-2.394-1.522-4.744-2.259-6.863-2.259-2.671 0-4.883 1.198-4.883 3.505 0 2.076 1.751 2.722 6.174 4.152 3.824 1.2 7.784 2.493 7.784 7.012 0 4.384-3.778 7.196-8.707 7.196-3.315 0-7.002-1.244-9.856-3.551M239.267 20.945l10.137 12.918h-4.33l-8.247-10.564-4.284 4.244v6.32h-3.456V1.614h3.456v21.592l13.037-13.194H250zM82.893 11.893c5.41 2.89 13.074 8.378 13.074 12.38h2.637c0-4.424 8.717-10.032 13.076-12.378l3.593 4.264-17.986 13.52L79.3 16.156l3.592-4.263zm39.506 5.512-3.166-4.222-1.846 1.388-5.042-5.984-.93.469c-1.281.644-10.631 5.488-14.128 11.154C93.789 14.544 84.439 9.7 83.158 9.056l-.93-.469-5.041 5.984-1.847-1.388-3.166 4.222L92.172 32.44a1.784 1.784 0 0 0-.105.598c0 1.637 2.336 2.961 5.22 2.961 2.88 0 5.219-1.324 5.219-2.961 0-.205-.037-.405-.107-.598l20-15.035z"/>
    </g>
</svg>
